<?xml version="1.0" encoding="UTF-8" standalone="no"?>
<!DOCTYPE svg PUBLIC "-//W3C//DTD SVG 1.1//EN" "http://www.w3.org/Graphics/SVG/1.1/DTD/svg11.dtd">
<svg width="100%" height="100%" viewBox="0 0 76 76" version="1.1" xmlns="http://www.w3.org/2000/svg" xmlns:xlink="http://www.w3.org/1999/xlink" xml:space="preserve" xmlns:serif="http://www.serif.com/" style="fill-rule:evenodd;clip-rule:evenodd;stroke-linejoin:round;stroke-miterlimit:2;">
    <g transform="matrix(1,0,0,1,-9.84036,-12.8993)">
        <g transform="matrix(0.498489,0.540853,-0.540853,0.498489,49.9376,-2.76003)">
            <path d="M51.545,0C23.077,0 0,23.077 0,51.545C0,80.013 23.077,103.09 51.545,103.09C80.013,103.09 103.09,80.013 103.09,51.545C103.09,23.077 80.013,0 51.545,0ZM51.545,73.15C32.815,73.15 17.63,57.966 17.63,39.235C17.63,20.504 32.815,5.321 51.545,5.321C70.275,5.321 85.46,20.505 85.46,39.236C85.46,57.967 70.275,73.15 51.545,73.15Z" style="fill:white;fill-opacity:0.1;fill-rule:nonzero;"/>
            <circle cx="51.545" cy="33.504" r="23.195" style="fill:white;fill-opacity:0.1;"/>
        </g>
    </g>
</svg>
